<svg xmlns="http://www.w3.org/2000/svg" width="1024" height="1024" viewBox="0 0 1024 1024">000"s*/>#000"/><path d="M 798.50,637.50 L 793.00,637.25 L 787.50,638.00 L 783.50,639.75 L 781.25,642.25 L 780.75,643.75 L 781.00,646.50 L 783.50,649.25 L 786.75,650.50 L 789.75,650.50 L 793.50,649.50 L 796.75,646.75 L 798.50,644.25 Z M 798.50,638.00 L 798.50,643.50 L 796.00,647.25 L 793.25,649.25 L 789.25,650.25 L 785.75,650.00 L 783.50,649.00 L 781.00,646.00 L 781.00,643.25 L 781.75,641.75 L 785.25,639.00 L 790.00,637.75 L 797.50,637.25 Z M 731.25,637.25 L 728.50,637.00 L 721.00,637.75 L 716.75,639.50 L 715.25,640.75 L 713.50,644.00 L 713.75,646.00 L 714.50,647.50 L 716.75,649.50 L 720.75,650.50 L 723.50,650.50 L 727.75,648.75 L 730.75,645.50 L 731.75,643.50 L 731.75,638.50 Z M 731.25,637.75 L 731.25,644.25 L 727.25,648.75 L 723.25,650.25 L 721.25,650.25 L 717.50,649.50 L 714.75,647.50 L 713.75,645.25 L 714.00,643.00 L 716.75,639.75 L 722.00,637.75 L 730.75,637.25 Z M 552.00,616.25 L 551.50,617.50 L 551.50,643.75 L 552.50,648.25 L 554.75,652.50 L 558.00,655.50 L 560.25,656.75 L 564.00,657.75 L 568.00,657.75 L 572.50,656.75 L 576.25,654.75 L 578.50,652.25 L 579.00,652.75 L 579.00,655.75 L 579.50,656.25 L 587.25,656.25 L 588.00,655.50 L 587.75,616.75 L 587.25,616.25 L 579.75,616.25 L 579.00,616.75 L 578.50,642.50 L 576.75,646.00 L 574.75,648.00 L 571.00,649.50 L 567.25,649.50 L 565.00,649.00 L 562.75,647.25 L 561.00,644.25 L 560.25,641.00 L 560.25,616.75 L 559.00,616.00 Z M 552.50,616.50 L 559.00,616.25 L 560.25,617.50 L 560.00,640.75 L 561.00,644.75 L 562.25,647.00 L 564.00,648.75 L 567.00,649.75 L 571.25,649.75 L 575.25,648.00 L 576.75,646.50 L 578.75,642.50 L 579.00,617.25 L 580.25,616.50 L 586.75,616.50 L 587.50,617.00 L 587.75,655.25 L 587.00,656.00 L 579.75,656.00 L 579.25,655.50 L 579.25,652.25 L 578.25,652.00 L 575.75,654.75 L 572.00,656.75 L 568.00,657.50 L 564.00,657.50 L 560.75,656.75 L 558.75,655.75 L 555.75,653.25 L 553.00,648.75 L 551.75,643.50 L 551.75,617.50 Z M 775.25,620.00 L 774.50,620.75 L 774.50,621.50 L 779.00,626.00 L 779.75,626.00 L 780.75,625.00 L 784.25,623.25 L 789.00,622.00 L 794.75,623.00 L 797.50,625.25 L 798.75,629.50 L 797.50,630.75 L 791.00,631.00 L 784.50,632.00 L 779.25,634.00 L 776.00,636.00 L 773.25,639.00 L 772.00,642.75 L 772.00,647.25 L 774.25,652.50 L 777.75,655.75 L 780.75,657.00 L 787.00,657.75 L 792.00,656.75 L 795.75,654.75 L 798.50,652.00 L 799.25,652.75 L 799.25,655.25 L 800.00,656.25 L 807.75,656.25 L 808.25,655.50 L 807.75,653.75 L 808.00,628.50 L 807.00,624.25 L 803.75,619.25 L 801.00,617.25 L 795.50,615.00 L 786.25,615.00 L 780.50,617.00 Z M 775.75,620.00 L 779.50,617.75 L 786.25,615.25 L 790.75,615.00 L 795.25,615.25 L 798.00,616.00 L 801.75,618.00 L 804.75,620.75 L 806.75,624.00 L 807.75,627.75 L 808.00,655.50 L 807.25,656.25 L 800.25,656.00 L 799.50,655.00 L 799.25,652.25 L 798.00,652.00 L 795.25,654.75 L 791.25,656.75 L 788.75,657.25 L 784.00,657.25 L 779.25,656.25 L 776.75,654.75 L 774.75,652.75 L 773.00,649.75 L 772.00,646.25 L 772.00,644.50 L 773.00,640.00 L 775.50,636.75 L 781.00,633.50 L 784.75,632.25 L 789.25,631.50 L 797.50,631.00 L 798.75,630.25 L 798.75,628.00 L 797.25,624.50 L 795.25,623.00 L 791.50,622.00 L 787.75,622.00 L 784.25,623.00 L 780.75,624.75 L 779.75,625.75 L 779.00,625.75 L 774.75,621.25 Z M 708.25,619.75 L 707.00,621.00 L 707.00,621.75 L 712.00,626.00 L 712.75,626.00 L 714.00,624.75 L 717.25,623.00 L 719.25,622.50 L 724.25,622.25 L 726.75,623.00 L 730.00,625.25 L 730.75,626.75 L 731.25,630.00 L 730.50,630.75 L 721.75,631.25 L 714.50,633.00 L 710.25,635.00 L 706.75,638.25 L 705.00,642.00 L 704.75,646.25 L 706.00,650.75 L 708.00,653.50 L 710.75,656.00 L 716.25,657.75 L 722.25,657.50 L 725.50,656.50 L 728.75,654.75 L 731.25,652.25 L 732.00,652.50 L 731.75,655.25 L 732.25,656.00 L 739.75,656.25 L 740.25,655.75 L 740.00,628.25 L 739.00,624.25 L 735.75,619.25 L 732.75,617.00 L 728.25,615.25 L 718.75,615.00 L 717.00,616.00 L 713.50,616.75 Z M 708.25,620.00 L 714.25,616.75 L 717.75,616.00 L 719.00,615.25 L 726.75,615.25 L 732.25,617.00 L 736.25,620.25 L 738.75,624.50 L 739.75,628.50 L 739.75,655.75 L 732.50,655.75 L 732.00,655.25 L 732.25,652.50 L 731.75,651.75 L 731.25,651.75 L 728.25,654.75 L 726.00,656.00 L 723.25,657.00 L 716.50,657.50 L 713.00,656.75 L 710.75,655.75 L 708.75,654.00 L 706.75,651.50 L 705.00,646.75 L 705.25,642.25 L 707.75,637.50 L 712.25,634.25 L 718.25,632.25 L 730.75,631.00 L 731.50,630.25 L 731.50,628.75 L 730.25,625.25 L 729.00,624.00 L 724.00,622.00 L 720.75,622.00 L 717.25,622.75 L 712.00,625.75 L 707.25,621.50 Z M 624.75,615.25 L 616.75,615.25 L 612.50,618.00 L 610.75,620.75 L 610.00,620.25 L 610.25,617.50 L 609.25,616.25 L 602.25,616.25 L 601.50,617.00 L 601.50,656.00 L 609.50,656.25 L 610.25,655.50 L 610.25,632.25 L 612.00,628.25 L 615.00,624.75 L 619.25,623.25 L 621.75,623.75 L 624.25,623.50 L 625.25,616.00 Z M 624.50,615.50 L 625.00,616.25 L 625.00,618.25 L 624.25,622.75 L 623.50,623.50 L 619.50,623.00 L 615.50,624.25 L 612.00,627.75 L 610.00,631.75 L 610.00,655.25 L 609.25,656.00 L 601.75,655.75 L 602.00,617.00 L 602.75,616.50 L 609.00,616.50 L 610.00,617.50 L 610.00,620.75 L 610.75,621.00 L 613.50,617.50 L 616.25,615.75 L 618.50,615.00 Z M 632.75,616.75 L 632.75,655.75 L 633.25,656.25 L 641.00,656.25 L 641.75,655.75 L 642.00,630.50 L 643.75,626.50 L 646.50,624.00 L 649.25,623.00 L 653.00,623.00 L 655.25,624.00 L 656.75,625.25 L 659.00,630.25 L 659.00,655.50 L 659.75,656.25 L 667.50,656.50 L 668.25,655.50 L 668.25,631.25 L 671.00,625.75 L 673.00,624.00 L 676.75,622.75 L 679.50,622.75 L 683.00,624.00 L 686.00,629.50 L 685.75,655.75 L 686.25,656.25 L 694.25,656.50 L 694.75,656.00 L 694.75,628.50 L 693.75,624.00 L 692.50,621.00 L 691.50,619.50 L 687.75,616.25 L 682.75,614.75 L 677.75,614.75 L 674.00,615.75 L 670.25,618.25 L 666.50,622.50 L 662.25,617.50 L 658.25,615.25 L 656.25,614.75 L 650.25,615.00 L 648.25,615.75 L 644.25,618.00 L 642.25,620.50 L 641.50,620.25 L 641.50,617.00 L 640.50,616.00 L 633.75,616.00 Z M 633.00,617.00 L 634.00,616.25 L 640.50,616.25 L 641.25,617.00 L 641.25,620.50 L 642.25,620.75 L 644.00,618.50 L 648.25,616.00 L 650.25,615.25 L 656.00,615.00 L 659.25,616.00 L 662.25,617.75 L 664.25,619.75 L 666.00,622.50 L 666.75,622.50 L 670.00,618.75 L 674.00,616.00 L 677.75,615.00 L 683.50,615.00 L 687.75,616.50 L 691.75,620.25 L 693.00,622.50 L 694.25,627.25 L 694.50,655.75 L 694.00,656.25 L 686.00,655.75 L 686.00,628.75 L 683.25,624.00 L 681.50,623.00 L 677.25,622.50 L 672.50,624.00 L 670.25,626.50 L 668.00,631.50 L 668.00,655.50 L 667.25,656.25 L 660.00,656.00 L 659.25,655.25 L 659.25,630.50 L 657.00,625.25 L 655.75,624.00 L 652.25,622.75 L 648.50,623.00 L 645.75,624.25 L 643.25,627.00 L 641.75,630.50 L 641.50,655.50 L 641.00,656.00 L 633.50,656.00 L 633.00,655.50 Z M 558.75,603.00 L 558.75,609.00 L 559.25,609.50 L 581.75,609.50 L 582.00,609.00 L 581.75,602.25 L 560.00,602.25 Z M 558.75,603.75 L 559.50,602.75 L 560.75,602.50 L 581.25,602.50 L 581.75,603.00 L 581.75,608.75 L 581.25,609.25 L 560.00,609.25 L 559.00,608.50 Z M 537.00,600.50 L 529.25,600.50 L 528.25,601.25 L 528.50,636.75 L 528.00,643.00 L 526.25,646.50 L 524.50,648.25 L 522.75,649.00 L 516.75,649.00 L 515.00,648.00 L 513.00,646.00 L 511.50,642.75 L 503.75,646.00 L 503.75,647.00 L 505.00,649.25 L 508.00,653.25 L 511.00,655.75 L 514.50,657.50 L 523.50,657.75 L 528.00,656.75 L 532.75,653.75 L 534.75,651.25 L 536.75,646.75 L 537.75,640.50 L 537.75,605.25 L 537.50,601.00 Z M 536.75,600.75 L 537.25,601.25 L 537.50,604.75 L 537.50,640.50 L 537.00,645.25 L 535.75,648.75 L 533.75,652.25 L 531.50,654.50 L 527.25,656.75 L 520.50,657.75 L 514.00,657.00 L 510.00,654.75 L 507.50,652.25 L 504.75,648.25 L 504.00,646.25 L 511.50,643.00 L 512.75,646.00 L 514.00,647.50 L 517.50,649.50 L 522.25,649.50 L 524.25,648.75 L 526.25,647.00 L 528.50,641.75 L 528.50,601.50 L 529.25,600.75 Z M 414.00,601.00 L 414.00,655.75 L 422.00,656.25 L 422.50,655.25 L 422.50,617.00 L 423.00,616.00 L 423.75,616.50 L 430.50,629.00 L 440.00,649.00 L 442.00,649.50 L 446.00,649.50 L 447.25,648.50 L 455.75,631.25 L 464.25,615.50 L 464.75,615.75 L 465.00,631.25 L 464.75,655.50 L 465.25,656.25 L 472.50,656.25 L 473.50,655.50 L 473.50,606.25 L 473.25,601.25 L 472.50,600.50 L 462.25,600.50 L 461.50,601.25 L 444.25,637.50 L 443.50,637.50 L 442.75,636.75 L 430.75,611.25 L 428.00,606.75 L 425.25,600.75 L 414.50,600.50 Z M 219.75,600.25 L 219.00,601.50 L 219.25,655.50 L 219.75,656.00 L 226.50,656.25 L 228.00,655.75 L 228.50,634.00 L 229.25,633.25 L 237.75,633.25 L 239.00,634.25 L 243.25,642.25 L 252.00,656.00 L 261.75,656.25 L 262.25,655.25 L 260.75,653.75 L 248.50,633.00 L 249.25,631.75 L 254.75,629.00 L 257.25,626.50 L 258.75,624.00 L 260.25,619.00 L 260.25,614.75 L 259.50,610.75 L 257.50,607.00 L 254.25,603.75 L 247.75,601.00 L 242.25,600.25 Z M 228.50,608.25 L 229.50,607.75 L 241.50,607.75 L 246.50,609.00 L 250.00,612.00 L 250.75,613.50 L 251.00,619.00 L 250.50,620.25 L 247.50,624.00 L 245.25,625.00 L 238.00,626.00 L 229.00,625.75 L 228.50,625.25 L 228.25,622.50 Z M 362.75,599.75 L 358.25,601.00 L 351.75,604.25 L 347.75,608.00 L 344.00,613.25 L 342.25,617.25 L 340.75,622.50 L 340.50,631.75 L 341.00,633.00 L 341.25,636.75 L 343.00,642.00 L 345.00,645.50 L 349.50,650.50 L 354.00,653.75 L 358.00,655.75 L 364.00,657.25 L 373.50,657.75 L 378.50,656.75 L 384.00,654.75 L 389.00,651.75 L 394.50,646.50 L 396.50,643.50 L 399.50,636.50 L 400.50,631.25 L 400.50,624.50 L 399.50,621.75 L 399.50,620.00 L 397.75,615.50 L 394.00,609.50 L 392.00,607.25 L 386.50,603.25 L 382.50,601.25 L 376.00,599.50 L 368.50,599.00 Z M 366.75,607.50 L 371.50,607.25 L 375.50,607.75 L 381.25,610.25 L 382.75,611.25 L 387.00,615.75 L 389.00,619.25 L 390.25,623.00 L 390.50,630.75 L 389.75,635.25 L 388.00,639.50 L 386.00,642.25 L 382.50,645.75 L 377.00,648.75 L 372.75,649.75 L 368.00,649.75 L 361.50,648.00 L 357.75,646.00 L 353.00,641.00 L 351.75,638.75 L 349.75,632.25 L 350.00,623.00 L 351.75,618.00 L 353.75,614.75 L 358.50,610.50 L 364.25,608.00 Z M 294.00,599.50 L 287.75,601.50 L 280.50,605.75 L 276.25,610.00 L 273.50,614.25 L 271.75,618.50 L 270.50,624.25 L 270.50,632.25 L 272.25,639.50 L 274.25,644.00 L 278.25,649.00 L 282.25,652.25 L 288.00,655.50 L 296.25,657.50 L 305.00,657.50 L 311.75,656.00 L 314.75,654.75 L 320.25,651.25 L 324.50,647.00 L 327.50,642.50 L 329.50,637.75 L 330.75,630.75 L 330.75,625.50 L 330.00,622.75 L 330.00,620.75 L 328.50,616.25 L 325.50,611.00 L 322.00,607.00 L 317.25,603.25 L 312.75,601.00 L 307.00,599.50 L 303.25,599.00 Z M 295.00,607.75 L 297.75,607.25 L 303.25,607.25 L 308.25,608.75 L 312.75,611.00 L 314.50,612.25 L 318.00,616.25 L 320.50,622.00 L 321.25,630.50 L 320.25,635.25 L 318.00,640.50 L 312.75,646.00 L 309.00,648.00 L 304.50,649.50 L 296.75,649.50 L 291.75,648.00 L 289.25,646.75 L 286.50,644.75 L 283.75,641.75 L 281.75,638.25 L 280.75,635.25 L 280.50,632.00 L 280.00,631.00 L 280.25,625.00 L 280.75,622.00 L 282.25,618.00 L 283.75,615.50 L 287.00,612.00 L 291.25,609.00 Z M 753.75,597.25 L 753.00,598.25 L 753.00,656.00 L 753.50,656.50 L 761.25,656.50 L 762.00,655.50 L 762.00,598.00 L 761.25,597.50 Z M 754.25,597.50 L 761.25,597.75 L 761.75,598.25 L 761.75,655.25 L 760.50,656.25 L 754.00,656.25 L 753.25,655.75 L 753.25,598.50 Z M 406.50,495.75 L 406.75,496.75 L 416.75,497.00 L 434.25,499.50 L 437.00,500.50 L 441.25,501.00 L 447.75,503.00 L 462.50,508.75 L 480.75,518.00 L 496.50,526.75 L 517.25,536.75 L 530.75,541.50 L 539.25,543.75 L 542.75,544.00 L 544.25,544.75 L 556.75,546.00 L 569.00,546.00 L 574.25,545.50 L 582.25,543.75 L 595.25,539.50 L 602.00,536.00 L 607.50,532.00 L 605.75,532.00 L 601.50,533.25 L 588.75,535.25 L 586.50,536.00 L 567.25,536.50 L 555.00,535.00 L 548.50,533.75 L 539.25,531.00 L 519.50,523.50 L 479.25,503.25 L 473.00,500.50 L 459.50,495.75 L 448.25,493.00 L 438.50,491.75 L 424.00,491.75 L 412.75,493.25 Z M 371.00,493.00 L 371.75,493.25 L 379.00,489.75 L 390.75,485.75 L 402.50,482.75 L 420.00,479.75 L 435.00,478.75 L 448.00,478.75 L 466.25,480.75 L 492.75,488.00 L 529.25,502.25 L 531.50,503.75 L 529.50,504.00 L 508.50,501.00 L 501.75,501.00 L 501.75,501.75 L 509.00,505.75 L 538.00,519.00 L 552.75,523.75 L 566.50,525.75 L 582.25,525.50 L 596.50,522.75 L 607.75,518.00 L 610.75,515.75 L 620.50,513.75 L 629.75,510.50 L 637.50,506.50 L 649.00,499.00 L 634.00,503.75 L 621.50,506.00 L 612.25,506.75 L 599.50,506.75 L 588.25,505.75 L 567.25,501.75 L 543.75,494.00 L 507.25,479.00 L 489.75,473.25 L 478.00,470.25 L 458.75,467.50 L 449.00,467.25 L 437.75,467.50 L 417.25,471.00 L 406.00,474.25 L 389.25,481.25 L 378.50,487.50 Z M 502.50,501.50 L 508.25,501.25 L 518.00,502.25 L 520.25,503.00 L 526.25,503.50 L 533.25,505.00 L 535.75,504.75 L 551.00,510.25 L 554.25,510.75 L 565.00,513.75 L 574.25,515.50 L 587.25,516.75 L 605.75,516.50 L 608.75,516.00 L 609.00,516.75 L 607.75,517.75 L 596.25,522.50 L 584.25,525.00 L 572.75,525.75 L 559.25,524.50 L 555.75,523.50 L 552.25,523.25 L 547.00,521.75 L 532.75,516.75 L 503.75,502.75 Z M 512.50,431.50 L 512.50,447.00 L 527.75,447.00 L 528.25,446.50 L 528.25,432.75 L 527.25,431.25 Z M 513.25,431.50 L 527.00,431.50 L 528.00,432.50 L 528.00,446.25 L 527.25,447.00 L 513.25,447.00 L 512.50,446.50 L 512.50,432.25 Z M 506.50,431.75 L 505.25,431.00 L 491.50,431.50 L 491.00,432.50 L 491.00,446.75 L 506.00,447.00 L 506.50,446.50 Z M 492.25,431.50 L 506.00,431.75 L 506.25,445.75 L 505.50,446.75 L 491.75,446.75 L 491.25,446.25 L 491.50,432.25 Z M 512.75,410.00 L 512.50,425.00 L 513.25,425.50 L 527.75,425.50 L 528.25,424.75 L 528.25,410.25 L 527.50,409.75 Z M 512.75,410.50 L 513.25,410.00 L 527.50,410.00 L 528.25,411.00 L 527.75,424.75 L 527.00,425.25 L 513.00,425.00 L 512.50,424.25 Z M 491.25,410.00 L 491.25,424.75 L 492.00,425.25 L 506.00,425.25 L 506.50,424.50 L 506.00,410.00 Z M 491.50,410.25 L 505.75,410.25 L 506.00,424.50 L 505.50,425.00 L 492.25,425.00 L 491.50,424.50 L 491.00,411.50 Z M 609.25,350.25 L 608.25,352.75 L 608.25,354.00 L 610.00,356.00 L 614.00,357.00 L 622.25,361.25 L 623.75,361.00 L 625.75,359.75 L 626.50,358.00 L 626.50,356.25 L 625.75,354.75 L 624.75,354.00 L 611.50,348.75 L 610.50,349.00 Z M 609.00,351.25 L 610.75,349.25 L 611.75,349.00 L 623.75,353.75 L 626.25,356.00 L 626.00,358.75 L 624.75,360.25 L 622.00,361.00 L 614.25,357.00 L 610.25,355.75 L 608.50,354.00 Z M 630.50,323.50 L 629.00,321.75 L 627.75,321.50 L 613.00,325.00 L 612.00,326.25 L 613.00,331.00 L 614.00,331.75 L 615.75,331.75 L 617.25,331.00 L 620.50,330.75 L 626.75,329.00 L 629.25,328.75 L 631.00,327.25 Z M 630.50,324.25 L 630.75,327.25 L 628.75,328.75 L 625.75,329.00 L 624.00,329.75 L 617.75,330.75 L 614.75,331.75 L 613.00,330.50 L 612.50,326.00 L 613.50,325.00 L 620.50,323.75 L 626.75,322.00 L 628.75,322.00 Z M 408.75,381.25 L 408.50,459.50 L 411.00,459.75 L 419.00,457.75 L 419.50,386.75 L 509.50,328.25 L 598.75,386.75 L 599.00,492.50 L 609.50,492.75 L 609.75,381.25 L 572.50,357.25 L 572.00,331.50 L 560.25,331.75 L 560.50,347.50 L 559.25,348.00 L 509.00,315.50 Z M 554.25,310.50 L 552.50,312.50 L 553.25,313.50 L 565.00,311.75 L 575.75,311.75 L 577.75,312.25 L 585.25,315.25 L 590.75,319.75 L 594.50,325.25 L 595.75,328.25 L 596.75,332.25 L 596.75,338.25 L 595.00,344.50 L 590.25,352.00 L 595.25,355.75 L 596.50,356.00 L 599.50,352.25 L 602.75,346.25 L 604.75,340.00 L 605.00,331.25 L 603.50,324.50 L 600.75,318.50 L 597.00,313.75 L 594.00,311.00 L 588.00,307.25 L 584.75,305.75 L 578.50,304.00 L 570.00,304.00 L 565.00,305.00 L 558.25,307.75 Z M 554.75,310.50 L 558.25,308.00 L 565.75,305.00 L 571.25,304.00 L 578.50,304.25 L 585.00,306.00 L 589.00,308.00 L 594.50,311.75 L 598.00,315.25 L 600.50,318.75 L 603.75,326.25 L 604.75,333.25 L 604.50,339.25 L 602.75,345.50 L 600.00,351.00 L 596.50,355.75 L 595.50,355.75 L 591.00,352.00 L 591.00,351.25 L 593.75,347.25 L 595.75,343.25 L 596.00,341.00 L 596.75,339.25 L 597.00,335.75 L 596.75,331.25 L 595.75,327.75 L 591.50,320.25 L 587.00,316.00 L 581.75,313.25 L 575.50,311.50 L 565.00,311.50 L 556.25,313.00 L 553.50,313.00 L 553.00,312.25 Z M 529.00,303.00 L 528.00,304.75 L 528.00,306.50 L 537.00,313.75 L 540.25,315.50 L 541.50,315.25 L 543.25,313.75 L 544.50,311.75 L 544.50,311.00 L 542.50,308.75 L 535.75,304.00 L 532.00,302.00 L 530.00,302.00 Z M 528.75,303.75 L 530.50,302.00 L 534.00,303.25 L 542.50,309.00 L 544.25,311.00 L 544.00,312.25 L 541.50,315.00 L 540.50,315.25 L 538.00,314.25 L 528.25,306.50 L 528.00,305.50 Z M 614.50,295.00 L 613.25,294.25 L 611.75,294.25 L 600.75,305.25 L 600.25,306.75 L 603.00,310.00 L 604.50,310.50 L 605.75,309.75 L 615.25,300.75 L 616.25,299.25 L 616.25,298.00 L 615.75,296.50 Z M 613.75,294.75 L 615.75,297.00 L 615.75,299.75 L 605.00,310.00 L 603.50,310.00 L 600.75,307.25 L 600.75,305.75 L 611.25,295.00 L 612.50,294.50 Z M 554.75,282.00 L 551.75,283.75 L 551.50,285.75 L 556.75,299.50 L 557.75,300.00 L 560.00,299.75 L 561.50,299.00 L 562.75,297.50 L 561.75,293.25 L 558.50,283.50 L 557.50,282.25 Z M 554.00,282.50 L 557.25,282.50 L 558.75,284.75 L 562.50,297.00 L 562.25,297.75 L 560.50,299.25 L 557.75,299.75 L 557.00,299.25 L 551.75,285.75 L 551.75,284.25 Z M 587.50,280.75 L 583.75,280.75 L 582.00,282.50 L 579.50,294.00 L 579.75,296.25 L 581.50,298.00 L 585.00,297.75 L 586.25,296.00 L 589.00,283.50 L 588.75,281.75 Z M 587.25,281.00 L 588.50,282.00 L 588.75,283.25 L 586.00,296.00 L 585.50,297.00 L 584.25,297.75 L 581.50,297.75 L 580.00,296.25 L 579.75,294.00 L 582.00,283.00 L 583.75,281.00 Z" fill="#427E82" fill-rule="evenodd"/><path d="M 552.50,616.75 L 552.00,617.50 L 552.00,643.50 L 553.25,648.75 L 556.00,653.25 L 558.75,655.50 L 560.75,656.50 L 564.00,657.25 L 568.00,657.25 L 572.00,656.50 L 575.75,654.50 L 578.25,651.75 L 579.50,652.25 L 579.75,655.75 L 587.00,655.75 L 587.50,655.25 L 587.25,617.00 L 580.25,616.75 L 579.25,617.25 L 579.25,641.75 L 577.00,646.50 L 575.25,648.25 L 572.00,649.75 L 567.00,650.00 L 564.00,649.00 L 562.00,647.00 L 560.75,644.75 L 559.75,640.75 L 560.00,617.50 L 559.00,616.50 Z M 708.25,620.25 L 707.50,621.50 L 712.00,625.50 L 717.25,622.50 L 719.25,622.00 L 724.00,621.75 L 727.25,622.75 L 730.50,625.25 L 731.75,628.75 L 731.75,630.25 L 730.75,631.25 L 718.25,632.50 L 712.75,634.25 L 708.00,637.50 L 705.50,642.25 L 705.25,646.75 L 707.00,651.50 L 709.00,654.00 L 710.75,655.50 L 715.00,657.00 L 721.75,657.00 L 727.00,655.25 L 729.50,653.50 L 731.25,651.50 L 731.75,651.50 L 732.50,652.50 L 732.50,655.50 L 739.75,655.50 L 739.50,628.50 L 738.50,624.50 L 736.00,620.25 L 732.25,617.25 L 726.75,615.50 L 719.00,615.50 L 717.75,616.25 L 714.25,617.00 Z M 731.50,637.25 L 732.00,638.50 L 732.00,643.50 L 731.00,645.50 L 727.75,649.00 L 723.50,650.75 L 720.75,650.75 L 716.75,649.75 L 714.25,647.50 L 713.50,646.00 L 713.25,644.00 L 715.00,640.75 L 716.75,639.25 L 719.50,638.00 L 722.75,637.25 L 730.50,636.75 Z M 775.75,620.25 L 775.00,621.25 L 779.00,625.50 L 779.75,625.50 L 780.75,624.50 L 784.25,622.75 L 787.75,621.75 L 791.50,621.75 L 795.25,622.75 L 798.00,625.25 L 799.00,628.00 L 799.00,630.25 L 797.50,631.25 L 789.25,631.75 L 783.00,633.00 L 778.00,635.25 L 775.50,637.00 L 773.25,640.00 L 772.25,644.50 L 772.25,646.25 L 773.25,649.75 L 775.00,652.75 L 777.75,655.25 L 780.50,656.50 L 788.75,657.00 L 791.25,656.50 L 794.00,655.25 L 796.25,653.75 L 798.00,651.75 L 799.00,651.75 L 799.75,652.75 L 799.75,655.00 L 800.25,655.75 L 807.25,656.00 L 807.75,655.50 L 807.50,627.75 L 806.50,624.00 L 804.50,620.75 L 801.75,618.25 L 798.00,616.25 L 795.25,615.50 L 788.00,615.25 L 784.50,616.00 L 781.00,617.25 Z M 798.75,637.50 L 798.75,644.25 L 797.00,646.75 L 793.50,649.75 L 789.75,650.75 L 785.75,650.50 L 783.50,649.50 L 780.75,646.50 L 780.50,643.75 L 781.00,642.25 L 783.50,639.50 L 787.50,637.75 L 793.00,637.00 L 798.00,637.00 Z M 633.25,617.00 L 633.50,655.75 L 641.25,655.50 L 641.50,630.50 L 643.00,627.00 L 645.75,624.00 L 648.50,622.75 L 652.25,622.50 L 655.75,623.75 L 657.25,625.25 L 659.50,630.50 L 659.50,655.25 L 660.00,655.75 L 667.25,656.00 L 667.75,655.50 L 667.75,631.50 L 670.00,626.50 L 672.50,623.75 L 677.25,622.25 L 681.50,622.75 L 683.25,623.75 L 685.00,626.00 L 686.25,628.75 L 686.25,655.75 L 694.25,655.75 L 694.25,628.75 L 693.50,624.75 L 692.25,621.50 L 690.50,619.00 L 687.75,616.75 L 683.50,615.25 L 677.75,615.25 L 674.00,616.25 L 670.00,619.00 L 666.75,622.75 L 665.75,622.50 L 664.00,619.75 L 662.25,618.00 L 659.25,616.25 L 656.00,615.25 L 650.25,615.50 L 648.25,616.25 L 644.00,618.75 L 642.25,621.00 L 641.00,620.50 L 641.00,617.00 L 640.50,616.50 L 634.00,616.50 Z M 624.50,615.75 L 622.00,615.25 L 617.50,615.50 L 613.50,617.75 L 610.75,621.25 L 609.75,620.75 L 609.50,617.00 L 602.25,617.00 L 601.75,655.50 L 609.25,655.75 L 609.75,655.25 L 609.75,631.75 L 611.75,627.75 L 615.50,624.00 L 619.50,622.75 L 621.75,623.25 L 623.50,623.25 L 624.00,622.75 L 624.75,618.25 Z M 559.00,603.75 L 559.25,608.50 L 560.00,609.00 L 581.50,608.75 L 581.25,602.75 L 560.75,602.75 L 559.50,603.00 Z M 536.75,601.00 L 529.25,601.00 L 528.75,601.50 L 528.75,641.75 L 526.50,647.00 L 523.75,649.25 L 519.00,650.00 L 516.75,649.50 L 514.25,648.00 L 512.50,646.00 L 511.50,643.25 L 504.25,646.25 L 505.00,648.25 L 507.75,652.25 L 510.00,654.50 L 514.00,656.75 L 520.50,657.50 L 527.25,656.50 L 531.50,654.25 L 533.50,652.25 L 535.50,648.75 L 536.75,645.25 L 537.25,640.50 L 537.25,604.75 Z M 754.25,597.75 L 753.50,598.50 L 753.50,655.75 L 760.50,656.00 L 761.50,655.25 L 761.50,598.25 Z M 502.75,501.50 L 503.75,502.50 L 532.75,516.50 L 547.00,521.50 L 552.25,523.00 L 555.75,523.25 L 559.25,524.25 L 572.75,525.50 L 584.25,524.75 L 596.25,522.25 L 602.75,519.75 L 608.75,516.75 L 608.75,516.25 L 605.75,516.75 L 587.25,517.00 L 574.25,515.75 L 565.00,514.00 L 562.25,513.00 L 551.00,510.50 L 535.75,505.00 L 533.25,505.25 L 515.75,502.25 L 508.25,501.50 Z M 513.25,431.75 L 512.75,432.25 L 512.75,446.50 L 527.25,446.75 L 527.75,446.25 L 527.75,432.50 L 527.00,431.75 Z M 492.25,431.75 L 491.75,432.25 L 491.50,446.25 L 505.50,446.50 L 506.00,445.75 L 505.75,431.75 Z M 513.25,410.25 L 512.75,421.25 L 513.00,424.75 L 527.50,424.75 L 527.75,410.50 Z M 491.50,410.50 L 491.75,424.50 L 505.50,424.75 L 505.50,410.25 Z M 609.25,351.25 L 608.75,354.00 L 610.75,355.75 L 614.25,356.75 L 622.00,360.75 L 624.75,360.00 L 625.75,358.75 L 626.00,356.00 L 623.75,354.00 L 611.75,349.25 L 610.75,349.50 Z M 630.25,324.25 L 628.75,322.25 L 626.75,322.25 L 620.50,324.00 L 613.50,325.25 L 612.75,326.00 L 613.25,330.50 L 614.75,331.50 L 617.75,330.50 L 624.00,329.50 L 625.75,328.75 L 628.75,328.50 L 630.50,327.25 Z M 554.75,310.75 L 553.25,312.25 L 553.50,312.75 L 556.25,312.75 L 565.00,311.25 L 575.50,311.25 L 581.75,313.00 L 587.00,315.75 L 591.75,320.25 L 596.00,327.75 L 597.00,331.25 L 597.25,335.75 L 597.00,339.25 L 596.25,341.00 L 596.00,343.25 L 594.00,347.25 L 591.25,351.25 L 591.25,352.00 L 595.50,355.50 L 596.50,355.50 L 599.75,351.00 L 602.50,345.50 L 604.25,339.25 L 604.50,333.25 L 603.50,326.25 L 600.25,318.75 L 597.75,315.25 L 594.50,312.00 L 589.00,308.25 L 585.00,306.25 L 578.50,304.50 L 571.25,304.25 L 565.75,305.25 L 558.75,308.00 Z M 529.00,303.75 L 528.25,305.50 L 528.50,306.50 L 538.00,314.00 L 540.75,315.00 L 541.50,314.75 L 543.75,312.25 L 544.00,311.00 L 542.50,309.25 L 535.75,304.50 L 531.25,302.25 L 530.50,302.25 Z M 613.75,295.00 L 612.50,294.75 L 611.25,295.25 L 601.00,305.75 L 601.00,307.25 L 603.50,309.75 L 605.00,309.75 L 615.50,299.75 L 615.50,297.00 Z M 554.00,282.75 L 552.00,284.25 L 552.00,285.75 L 556.25,297.25 L 557.75,299.50 L 560.50,299.00 L 562.00,297.75 L 562.25,297.00 L 558.50,284.75 L 557.25,282.75 Z M 587.25,281.25 L 583.75,281.25 L 582.25,283.00 L 580.00,294.00 L 580.25,296.25 L 581.50,297.50 L 584.25,297.50 L 585.25,297.00 L 585.75,296.00 L 588.50,283.25 L 588.25,282.00 Z" fill="#DFAF87" fill-rule="evenodd"/></svg>